<svg width="42" height="34" viewBox="0 0 42 34" fill="none" xmlns="http://www.w3.org/2000/svg">
<path fill-rule="evenodd" clip-rule="evenodd" d="M41.0813 10.9796C41.0813 10.9476 41.0549 10.9328 41.0496 10.9015C41.0418 10.8325 41.0549 10.7623 41.026 10.6963L36.9067 0.999475C36.7934 0.734839 36.5303 0.559915 36.2382 0.559915H5.83962C5.54738 0.559915 5.2843 0.734839 5.17096 0.999475L1.04899 10.6963C1.02004 10.7623 1.0332 10.8325 1.02268 10.9015C1.02004 10.9328 0.993728 10.9476 0.993728 10.9796C0.993728 10.9938 1.00961 11.0054 1.00961 11.0216C1.02004 11.1797 1.06479 11.3306 1.17281 11.4556L20.4927 33.2883C20.5084 33.3075 20.5375 33.2995 20.5532 33.319C20.6058 33.3652 20.648 33.4072 20.7112 33.441C20.7243 33.4466 20.7269 33.4694 20.7453 33.475C20.8401 33.515 20.9401 33.5354 21.0349 33.5354C21.1322 33.5354 21.2323 33.515 21.3271 33.475C21.3454 33.4694 21.3481 33.4466 21.3613 33.438C21.4244 33.4072 21.4665 33.3652 21.5166 33.319C21.535 33.2995 21.564 33.3075 21.5798 33.2883L40.8997 11.4556C41.0076 11.3306 41.0549 11.1797 41.0655 11.0216C41.0655 11.0054 41.0813 10.9938 41.0813 10.9796ZM25.965 2.0029L29.5183 10.2585H12.5568L16.1128 2.0029H25.965ZM29.5078 11.7006L21.0349 31.0079L12.5671 11.7006H29.5078ZM10.9827 11.7006L18.5133 28.8717L3.32054 11.7006H10.9827ZM31.0924 11.7006H38.7518L23.559 28.8687L31.0924 11.7006ZM39.2651 10.2585H31.0949L27.5415 2.0029H35.7564L39.2651 10.2585ZM6.31865 2.0029H14.5388L10.9827 10.2585H2.80983L6.31865 2.0029Z" fill="url(#paint0_linear_0_157)"/>
<path fill-rule="evenodd" clip-rule="evenodd" d="M41.0813 10.9796C41.0813 10.9476 41.0549 10.9328 41.0496 10.9015C41.0418 10.8325 41.0549 10.7623 41.026 10.6963L36.9067 0.999475C36.7934 0.734839 36.5303 0.559915 36.2382 0.559915H5.83962C5.54738 0.559915 5.2843 0.734839 5.17096 0.999475L1.04899 10.6963C1.02004 10.7623 1.0332 10.8325 1.02268 10.9015C1.02004 10.9328 0.993728 10.9476 0.993728 10.9796C0.993728 10.9938 1.00961 11.0054 1.00961 11.0216C1.02004 11.1797 1.06479 11.3306 1.17281 11.4556L20.4927 33.2883C20.5084 33.3075 20.5375 33.2995 20.5532 33.319C20.6058 33.3652 20.648 33.4072 20.7112 33.441C20.7243 33.4466 20.7269 33.4694 20.7453 33.475C20.8401 33.515 20.9401 33.5354 21.0349 33.5354C21.1322 33.5354 21.2323 33.515 21.3271 33.475C21.3454 33.4694 21.3481 33.4466 21.3613 33.438C21.4244 33.4072 21.4665 33.3652 21.5166 33.319C21.535 33.2995 21.564 33.3075 21.5798 33.2883L40.8997 11.4556C41.0076 11.3306 41.0549 11.1797 41.0655 11.0216C41.0655 11.0054 41.0813 10.9938 41.0813 10.9796ZM25.965 2.0029L29.5183 10.2585H12.5568L16.1128 2.0029H25.965ZM29.5078 11.7006L21.0349 31.0079L12.5671 11.7006H29.5078ZM10.9827 11.7006L18.5133 28.8717L3.32054 11.7006H10.9827ZM31.0924 11.7006H38.7518L23.559 28.8687L31.0924 11.7006ZM39.2651 10.2585H31.0949L27.5415 2.0029H35.7564L39.2651 10.2585ZM6.31865 2.0029H14.5388L10.9827 10.2585H2.80983L6.31865 2.0029Z" fill="#FF3B4A"/>
<defs>
<linearGradient id="paint0_linear_0_157" x1="17" y1="-15.1938" x2="-10.7819" y2="26.3075" gradientUnits="userSpaceOnUse">
<stop stop-color="white"/>
<stop offset="1" stop-color="white"/>
</linearGradient>
</defs>
</svg>
