<svg width="41" height="41" viewBox="0 0 41 41" fill="none" xmlns="http://www.w3.org/2000/svg">
<path fill-rule="evenodd" clip-rule="evenodd" d="M20.7112 26.1906C17.6518 26.1906 15.1618 23.6965 15.1618 20.6253C15.1618 17.556 17.6518 15.062 20.7112 15.062C23.7675 15.062 26.2551 17.556 26.2551 20.6253C26.2551 23.6965 23.7675 26.1906 20.7112 26.1906ZM20.7112 16.5041C18.4428 16.5041 16.6 18.3535 16.6 20.6253C16.6 22.897 18.4428 24.7482 20.7112 24.7482C22.9741 24.7482 24.8168 22.897 24.8168 20.6253C24.8168 18.3535 22.9741 16.5041 20.7112 16.5041ZM18.2939 40.7222C17.9652 40.7222 17.6781 40.4961 17.5971 40.177L16.3599 35.2143C15.3967 34.916 14.4466 34.5102 13.5278 34.0091L9.12694 36.6588C8.84512 36.8287 8.48241 36.7819 8.24995 36.5523L4.83064 33.1217C4.59826 32.8893 4.55393 32.5267 4.72357 32.2428L7.36514 27.8355C6.87451 26.9235 6.48029 25.9745 6.18806 24.9971L1.21279 23.7501C0.894459 23.6705 0.667419 23.3798 0.667419 23.0521V18.2081C0.667419 17.8757 0.894459 17.5868 1.21279 17.5087L6.15929 16.2702C6.46206 15.294 6.8666 14.341 7.36252 13.4257L4.72103 9.01094C4.55139 8.72648 4.59586 8.36242 4.82801 8.12918L8.24217 4.70624C8.47712 4.47093 8.83987 4.4224 9.12186 4.59853L13.5226 7.24473C14.4283 6.75809 15.3758 6.3591 16.3493 6.06725L17.5918 1.07734C17.6727 0.756492 17.9599 0.53064 18.2889 0.53064H23.1203C23.4491 0.53064 23.7388 0.756492 23.8172 1.07734L25.0545 6.04388C26.0255 6.34696 26.9755 6.75132 27.8838 7.24117L32.2898 4.58995C32.5665 4.42803 32.932 4.47093 33.167 4.70092L36.5811 8.12412C36.816 8.35736 36.8603 8.72027 36.6907 9.00649L34.0491 13.4257C34.5346 14.3315 34.9288 15.281 35.2211 16.2519L40.2014 17.5037C40.5224 17.5818 40.747 17.8725 40.747 18.2028V23.0429C40.747 23.3724 40.5224 23.6636 40.2014 23.7409L35.2211 24.9921C34.9288 25.9725 34.5346 26.9214 34.0517 27.8212L36.6959 32.2372C36.8655 32.5231 36.8212 32.8863 36.5863 33.1193L33.1721 36.5499C32.9373 36.7819 32.5744 36.8216 32.295 36.6588L27.8891 34.0067C26.9808 34.5037 26.0306 34.9044 25.0571 35.2111L23.825 40.1741C23.7441 40.4937 23.457 40.719 23.1255 40.719L18.2939 40.7222ZM13.5149 32.4554C13.6375 32.4554 13.7626 32.4867 13.8748 32.5519C14.9295 33.1616 16.0336 33.6296 17.1534 33.9419C17.4013 34.012 17.5918 34.2142 17.657 34.4649L18.8578 39.2799L22.5643 39.2769L23.7625 34.4598C23.825 34.2115 24.0155 34.012 24.2635 33.9419C25.399 33.6222 26.5005 33.1536 27.542 32.5501C27.769 32.4163 28.0457 32.4207 28.2703 32.5533L32.551 35.1335L35.1741 32.4983L32.6032 28.2093C32.4673 27.9831 32.4673 27.7028 32.5954 27.4752C33.1878 26.4475 33.642 25.3499 33.95 24.2059C34.0179 23.9546 34.2163 23.7593 34.4693 23.6965L39.3086 22.4791V18.7655L34.4693 17.5498C34.2163 17.4883 34.0179 17.292 33.95 17.0393C33.6445 15.9062 33.1878 14.8033 32.5954 13.767C32.4673 13.5432 32.47 13.2638 32.6032 13.0371L35.1689 8.7472L32.5482 6.11965L28.2677 8.6951C28.0457 8.83036 27.769 8.83661 27.5395 8.70104C26.4952 8.0978 25.3937 7.63013 24.261 7.30954C24.013 7.24117 23.8224 7.04343 23.7597 6.79215L22.5592 1.97274H18.8527L17.6439 6.82057C17.5816 7.07247 17.3856 7.27373 17.1352 7.34092C15.9997 7.65054 14.9008 8.10814 13.8672 8.7025C13.6427 8.83661 13.3659 8.83362 13.1389 8.6951L8.86339 6.12141L6.24276 8.75283L8.80857 13.0371C8.94432 13.2638 8.94432 13.5432 8.81394 13.7694C8.21087 14.8225 7.74105 15.9302 7.42513 17.0626C7.35465 17.3145 7.15629 17.5054 6.90569 17.5685L2.10568 18.7711V22.4865L6.93966 23.7015C7.19288 23.7643 7.3912 23.9606 7.45905 24.2125C7.76698 25.3482 8.22136 26.4499 8.8191 27.4873C8.94948 27.7147 8.94694 27.995 8.8111 28.219L6.24538 32.5033L8.86855 35.1359L13.1441 32.5598C13.259 32.4903 13.3868 32.4554 13.5149 32.4554Z" fill="url(#paint0_linear_0_141)"/>
<path fill-rule="evenodd" clip-rule="evenodd" d="M20.7112 26.1906C17.6518 26.1906 15.1618 23.6965 15.1618 20.6253C15.1618 17.556 17.6518 15.062 20.7112 15.062C23.7675 15.062 26.2551 17.556 26.2551 20.6253C26.2551 23.6965 23.7675 26.1906 20.7112 26.1906ZM20.7112 16.5041C18.4428 16.5041 16.6 18.3535 16.6 20.6253C16.6 22.897 18.4428 24.7482 20.7112 24.7482C22.9741 24.7482 24.8168 22.897 24.8168 20.6253C24.8168 18.3535 22.9741 16.5041 20.7112 16.5041ZM18.2939 40.7222C17.9652 40.7222 17.6781 40.4961 17.5971 40.177L16.3599 35.2143C15.3967 34.916 14.4466 34.5102 13.5278 34.0091L9.12694 36.6588C8.84512 36.8287 8.48241 36.7819 8.24995 36.5523L4.83064 33.1217C4.59826 32.8893 4.55393 32.5267 4.72357 32.2428L7.36514 27.8355C6.87451 26.9235 6.48029 25.9745 6.18806 24.9971L1.21279 23.7501C0.894459 23.6705 0.667419 23.3798 0.667419 23.0521V18.2081C0.667419 17.8757 0.894459 17.5868 1.21279 17.5087L6.15929 16.2702C6.46206 15.294 6.8666 14.341 7.36252 13.4257L4.72103 9.01094C4.55139 8.72648 4.59586 8.36242 4.82801 8.12918L8.24217 4.70624C8.47712 4.47093 8.83987 4.4224 9.12186 4.59853L13.5226 7.24473C14.4283 6.75809 15.3758 6.3591 16.3493 6.06725L17.5918 1.07734C17.6727 0.756492 17.9599 0.53064 18.2889 0.53064H23.1203C23.4491 0.53064 23.7388 0.756492 23.8172 1.07734L25.0545 6.04388C26.0255 6.34696 26.9755 6.75132 27.8838 7.24117L32.2898 4.58995C32.5665 4.42803 32.932 4.47093 33.167 4.70092L36.5811 8.12412C36.816 8.35736 36.8603 8.72027 36.6907 9.00649L34.0491 13.4257C34.5346 14.3315 34.9288 15.281 35.2211 16.2519L40.2014 17.5037C40.5224 17.5818 40.747 17.8725 40.747 18.2028V23.0429C40.747 23.3724 40.5224 23.6636 40.2014 23.7409L35.2211 24.9921C34.9288 25.9725 34.5346 26.9214 34.0517 27.8212L36.6959 32.2372C36.8655 32.5231 36.8212 32.8863 36.5863 33.1193L33.1721 36.5499C32.9373 36.7819 32.5744 36.8216 32.295 36.6588L27.8891 34.0067C26.9808 34.5037 26.0306 34.9044 25.0571 35.2111L23.825 40.1741C23.7441 40.4937 23.457 40.719 23.1255 40.719L18.2939 40.7222ZM13.5149 32.4554C13.6375 32.4554 13.7626 32.4867 13.8748 32.5519C14.9295 33.1616 16.0336 33.6296 17.1534 33.9419C17.4013 34.012 17.5918 34.2142 17.657 34.4649L18.8578 39.2799L22.5643 39.2769L23.7625 34.4598C23.825 34.2115 24.0155 34.012 24.2635 33.9419C25.399 33.6222 26.5005 33.1536 27.542 32.5501C27.769 32.4163 28.0457 32.4207 28.2703 32.5533L32.551 35.1335L35.1741 32.4983L32.6032 28.2093C32.4673 27.9831 32.4673 27.7028 32.5954 27.4752C33.1878 26.4475 33.642 25.3499 33.95 24.2059C34.0179 23.9546 34.2163 23.7593 34.4693 23.6965L39.3086 22.4791V18.7655L34.4693 17.5498C34.2163 17.4883 34.0179 17.292 33.95 17.0393C33.6445 15.9062 33.1878 14.8033 32.5954 13.767C32.4673 13.5432 32.47 13.2638 32.6032 13.0371L35.1689 8.7472L32.5482 6.11965L28.2677 8.6951C28.0457 8.83036 27.769 8.83661 27.5395 8.70104C26.4952 8.0978 25.3937 7.63013 24.261 7.30954C24.013 7.24117 23.8224 7.04343 23.7597 6.79215L22.5592 1.97274H18.8527L17.6439 6.82057C17.5816 7.07247 17.3856 7.27373 17.1352 7.34092C15.9997 7.65054 14.9008 8.10814 13.8672 8.7025C13.6427 8.83661 13.3659 8.83362 13.1389 8.6951L8.86339 6.12141L6.24276 8.75283L8.80857 13.0371C8.94432 13.2638 8.94432 13.5432 8.81394 13.7694C8.21087 14.8225 7.74105 15.9302 7.42513 17.0626C7.35465 17.3145 7.15629 17.5054 6.90569 17.5685L2.10568 18.7711V22.4865L6.93966 23.7015C7.19288 23.7643 7.3912 23.9606 7.45905 24.2125C7.76698 25.3482 8.22136 26.4499 8.8191 27.4873C8.94948 27.7147 8.94694 27.995 8.8111 28.219L6.24538 32.5033L8.86855 35.1359L13.1441 32.5598C13.259 32.4903 13.3868 32.4554 13.5149 32.4554Z" fill="#FF3B4A"/>
<defs>
<linearGradient id="paint0_linear_0_141" x1="21.1627" y1="-19.1084" x2="-19.0262" y2="20.0576" gradientUnits="userSpaceOnUse">
<stop stop-color="white"/>
<stop offset="1" stop-color="white"/>
</linearGradient>
</defs>
</svg>
